<?xml version="1.0" encoding="UTF-8" standalone="no" ?>
<!DOCTYPE svg PUBLIC "-//W3C//DTD SVG 1.1//EN" "http://www.w3.org/Graphics/SVG/1.1/DTD/svg11.dtd">
<svg xmlns="http://www.w3.org/2000/svg" xmlns:xlink="http://www.w3.org/1999/xlink" version="1.1" width="400" height="400" viewBox="0 0 400 400" xml:space="preserve">
<desc>Created with Fabric.js 3.6.2</desc>
<defs>
</defs>
<g transform="matrix(0.42 0 0 0.42 200 200)"  >
<path style="stroke: none; stroke-width: 1; stroke-dasharray: none; stroke-linecap: butt; stroke-dashoffset: 0; stroke-linejoin: miter; stroke-miterlimit: 4; fill: rgb(0,0,0); fill-rule: evenodd; opacity: 1;"  transform=" translate(-256, -256)" d="M 484.7 132 c 3.56 -11.28 0 -19.48 -15.75 -19.48 H 416.58 c -13.21 0 -19.31 7.18 -22.87 14.86 c 0 0 -26.94 65.6 -64.56 108.13 c -12.2 12.3 -17.79 16.4 -24.4 16.4 c -3.56 0 -8.14 -4.1 -8.14 -15.37 V 131.47 c 0 -13.32 -4.06 -19.47 -15.25 -19.47 H 199 c -8.14 0 -13.22 6.15 -13.22 12.3 c 0 12.81 18.81 15.89 20.84 51.76 V 254 c 0 16.91 -3 20 -9.66 20 c -17.79 0 -61 -66.11 -86.92 -141.44 C 105 117.64 99.88 112 86.66 112 H 33.79 C 18.54 112 16 119.17 16 126.86 c 0 13.84 17.79 83.53 82.86 175.77 c 43.21 63 104.72 96.86 160.13 96.86 c 33.56 0 37.62 -7.69 37.62 -20.5 V 331.33 c 0 -15.37 3.05 -17.93 13.73 -17.93 c 7.62 0 21.35 4.09 52.36 34.33 C 398.28 383.6 404.38 400 424.21 400 h 52.36 c 15.25 0 22.37 -7.69 18.3 -22.55 c -4.57 -14.86 -21.86 -36.38 -44.23 -62 c -12.2 -14.34 -30.5 -30.23 -36.09 -37.92 c -7.62 -10.25 -5.59 -14.35 0 -23.57 c -0.51 0 63.55 -91.22 70.15 -122" stroke-linecap="round" />
</g>
</svg>